# xmcd CD database file
#
# Track frame offsets:
#	150
#	14912
#	28362
#	41997
#	57520
#	76587
#	90547
#	100680
#	115607
#	127897
#	150790
#	161317
#	172937
#	188297
#	202452
#	214907
#
# Disc length: 3105 seconds
#
# Revision: 0
# Processed by: cddbd v1.4PL0 Copyright (c) Steve Scherf et al.
# Submitted via: CDex 1.50Beta7
#
DISCID=c80c1f10
DTITLE=Erika V. Paul - Wishing You a Swingin' Happy Holiday
DYEAR=1998
DGENRE=Jazz
TTITLE0=Spending the Holidays with You
TTITLE1=Wishing You a Swingin' Happy Holiday
TTITLE2=We Three Kings
TTITLE3=Here Comes Santa Claus
TTITLE4=Winter Wonderland
TTITLE5=I'll Be Home for Christmas
TTITLE6=Rudolph the Red-Nosed Reindeer
TTITLE7=Santa, Don't Come to Our House Tonight
TTITLE8=Frosty the Snowman
TTITLE9=Have Yourself a Merry Christmas
TTITLE10=Count Your Blessings
TTITLE11=Silver Bells
TTITLE12=You're My Christmas
TTITLE13=God Rest Ye Merry Gentlemen
TTITLE14=Christmas Time Is Here
TTITLE15=The Holiday Season Is Here
EXTD=YEAR: 1998
EXTT0=
EXTT1=
EXTT2=
EXTT3=
EXTT4=
EXTT5=
EXTT6=
EXTT7=
EXTT8=
EXTT9=
EXTT10=
EXTT11=
EXTT12=
EXTT13=
EXTT14=
EXTT15=
PLAYORDER=
